<?xml version="1.0" standalone="no"?>
<!DOCTYPE svg PUBLIC "-//W3C//DTD SVG 20010904//EN"
 "http://www.w3.org/TR/2001/REC-SVG-20010904/DTD/svg10.dtd">
<svg version="1.0" xmlns="http://www.w3.org/2000/svg"
 width="225.000000pt" height="225.000000pt" viewBox="0 0 225.000000 225.000000"
 preserveAspectRatio="xMidYMid meet">
<metadata>
Created by potrace 1.10, written by Peter Selinger 2001-2011
</metadata>
<g transform="translate(0.000000,225.000000) scale(0.100000,-0.100000)"
fill="#000000" stroke="none">
<path d="M721 1889 c-72 -14 -168 -65 -226 -120 -63 -60 -119 -163 -135 -248
-13 -71 -13 -723 0 -792 35 -182 188 -335 369 -369 70 -13 722 -13 792 0 181
34 334 187 369 369 13 70 13 722 0 792 -35 182 -188 335 -369 369 -65 12 -738
11 -800 -1z m901 -66 c109 -51 188 -137 225 -245 21 -62 20 -847 -2 -908 -24
-69 -59 -122 -114 -174 -62 -57 -139 -93 -229 -106 -88 -13 -667 -12 -756 0
-179 26 -322 160 -356 335 -8 41 -10 179 -8 435 3 355 4 378 25 432 43 115
120 190 252 245 56 23 57 23 476 20 l420 -2 67 -32z"/>
<path d="M703 1772 c-101 -36 -178 -110 -220 -212 -16 -41 -18 -80 -18 -440
l0 -395 27 -55 c39 -80 88 -132 160 -171 l63 -34 410 0 410 0 63 34 c76 41
115 84 156 171 l31 65 0 390 0 390 -32 67 c-38 81 -91 136 -169 174 l-59 29
-385 2 c-350 3 -390 1 -437 -15z m872 -42 c64 -31 124 -91 155 -155 l25 -50 0
-400 0 -400 -25 -50 c-31 -64 -91 -124 -155 -155 l-50 -25 -400 0 -400 0 -50
25 c-64 31 -124 91 -155 155 l-25 50 -3 380 c-3 329 -1 386 13 429 33 100 105
174 205 210 39 13 99 15 430 13 l385 -2 50 -25z"/>
<path d="M1497 1582 c-22 -24 -21 -65 1 -85 40 -36 102 -9 102 45 0 51 -69 78
-103 40z m68 -42 c0 -18 -6 -26 -23 -28 -24 -4 -38 18 -28 44 3 9 15 14 28 12
17 -2 23 -10 23 -28z"/>
<path d="M1080 1543 c-60 -6 -157 -45 -207 -82 -265 -201 -201 -620 112 -730
273 -97 557 104 557 394 0 249 -214 442 -462 418z m161 -49 c114 -34 208 -121
249 -232 18 -47 21 -74 18 -152 -3 -84 -7 -104 -36 -162 -38 -78 -100 -138
-182 -177 -49 -23 -67 -26 -165 -26 -98 0 -116 3 -167 27 -76 35 -138 95 -179
170 -30 57 -34 73 -37 160 -5 115 11 177 64 250 96 130 276 189 435 142z"/>
<path d="M1043 1426 c-87 -28 -167 -99 -204 -180 -29 -64 -26 -187 6 -252 32
-63 86 -119 149 -152 43 -22 64 -27 131 -27 67 0 88 5 130 27 67 35 118 90
151 161 23 51 26 68 22 135 -4 88 -22 130 -79 196 -74 84 -208 124 -306 92z
m192 -40 c50 -21 121 -91 147 -144 17 -35 22 -65 22 -117 0 -87 -26 -146 -90
-205 -62 -57 -105 -73 -189 -73 -84 0 -127 16 -189 73 -134 124 -123 313 26
433 68 55 186 69 273 33z"/>
</g>
</svg>
